<svg xmlns="http://www.w3.org/2000/svg" viewBox="0 0 148.09 47.54">
  <title>Asset 2flower_2_b</title>
  <g id="Layer_2" data-name="Layer 2">
    <g id="AW">
      <path d="M147.92,27.77l-.35-.25a5.12,5.12,0,0,0-1.3-.76l-1.45-.49A34.57,34.57,0,0,1,141.46,25c-1.52-.69-3.12-1.33-4.75-1.9a10,10,0,0,0-4.54-.48h-.7c-.52,0-1.1,0-1.43.05l-.58.07a11.18,11.18,0,0,0-1.21.19c-1.38.33-2.75.8-4.08,1.25-.86.29-1.72.59-2.58.84A25.22,25.22,0,0,0,117,27.13c-.82.43-1.66.88-2.54,1.27a5.91,5.91,0,0,1-1.88.41c-.33,0-.66.07-1,.13a13.27,13.27,0,0,0-3.37,1.23,13.4,13.4,0,0,1-3,1.15c-.19,0-.4.06-.62.09-.89.12-2.07.28-2.41,1.37l-.41,0a1.12,1.12,0,0,1-.9-.13l-.58-.35a4.68,4.68,0,0,0-2.83-1,6.08,6.08,0,0,0-.91.2,4.14,4.14,0,0,1-1,.19l-.41,0a7.26,7.26,0,0,0-1,.06,7.19,7.19,0,0,1-3.55-.58c-.35-.12-.7-.24-1.07-.35a12.48,12.48,0,0,0-6.26-.27,12.74,12.74,0,0,0-1.68.47,10.29,10.29,0,0,1-1.89.48,6.29,6.29,0,0,1-1.78-.19c-.37-.07-.73-.14-1.07-.18-.83-.09-1.66-.14-2.49-.19-1.18-.08-2.4-.15-3.57-.34l-.53-.08c-.46-.07-1-.15-1.46-.25a.37.37,0,0,0-.18,0l-.52.14-.11.05c-.8.53-3.85,2.38-4.56,2.69-.55.24-1.12.46-1.7.68a23.15,23.15,0,0,0-3.29,1.46v0c0-.21.46-.46.8-.65l.38-.23c.76-.49,1.76-1,2.73-1.54s1.83-1,2.56-1.43A7.41,7.41,0,0,0,67,28.36a4,4,0,0,0,.19-.43.4.4,0,0,0,.09-.44c-.24-.51-7.05-.3-7.12-.29l-.27,0a1.67,1.67,0,0,0-.51,0,6.19,6.19,0,0,0-1.42.46c-.34.14-.66.27-1,.36s-.86.26-1.29.41a13.24,13.24,0,0,1-1.26.41,21.69,21.69,0,0,0-2.64.91c-.72.29-1.42.52-2.17.75l-1.1.35c-.15.05-.35.14-.57.24a3.43,3.43,0,0,1-1.29.42c-.06,0-.16-.11-.25-.2a4.25,4.25,0,0,0,.49-.21,4.17,4.17,0,0,1,.58-.24,25.86,25.86,0,0,0,2.92-1.19,26.38,26.38,0,0,1,3-1.2c.58-.18,1.16-.38,1.75-.59a24,24,0,0,1,3.46-1c.74-.13,1.52,0,2.37-.12,1-.13,2-.32,3.17-.55A7.87,7.87,0,0,1,65.15,26l0,0h0a.39.39,0,0,0,.23-.07.4.4,0,0,0,.15-.34.45.45,0,0,0-.34-.42.42.42,0,0,0-.22,0l-.18-.07c-1.22-.48-2.61-1-3.92-1.39l-1-.3a31.82,31.82,0,0,0-5-1.15,52.36,52.36,0,0,1-6.65-1.09L47.7,21a7.37,7.37,0,0,1-1.57-.46,9.27,9.27,0,0,1-1.1-.64,45,45,0,0,0,9.22,1.68l1.2.14c4.16.48,8.9,1.22,12.47,4l.58.46a10.19,10.19,0,0,0,1.72,1.21,6.31,6.31,0,0,0,3,.68,16.66,16.66,0,0,0,4.39-.76.35.35,0,0,0,.39-.05.82.82,0,0,1,.26,0l1.41.19a12.54,12.54,0,0,0,1.49.09c.47,0,.91,0,1.36.07.67.09,1.35.16,2,.22l.9.09.47.06a6.43,6.43,0,0,0,1.86.06c.6-.09,1.21-.24,1.79-.38s1-.25,1.47-.34A18.3,18.3,0,0,1,95,27a24.51,24.51,0,0,1,3.68.59,21.69,21.69,0,0,0,4.42.61l.7,0a6.64,6.64,0,0,0,2.34-.76c.26-.12.52-.25.79-.36,1-.42,2-.87,3.06-1.31l1.34-.6c.13-.05,3.19-1.25,3.69-1.47l.82-.37c.4-.18.79-.37,1.2-.53a17.37,17.37,0,0,1,2-.63,38.31,38.31,0,0,0,5.22-1.69,12.39,12.39,0,0,1,2.46-.81l.38,0a4.36,4.36,0,0,0,.89-.07,3.56,3.56,0,0,0,.93,0,2.4,2.4,0,0,1,.37,0l.63,0a3.36,3.36,0,0,1,.56,0c.53,0,1.07.06,1.59.11a15.35,15.35,0,0,0,2.54,0l.75-.05a26.05,26.05,0,0,1,4.58.22l.57.07a20.62,20.62,0,0,1,2.11.34,4.74,4.74,0,0,1,1.3.58l.59.32a3.59,3.59,0,0,1,.38.21.38.38,0,0,0,.38-.66l-.42-.23-.55-.3a5.19,5.19,0,0,0-1.51-.66,21.19,21.19,0,0,0-2.19-.35L140.1,19a26.66,26.66,0,0,0-4.72-.23l-.76,0h-.05l-.72-.36a16.53,16.53,0,0,1-3.25-2.58h0a.3.3,0,0,0,0-.23A4.09,4.09,0,0,0,129.19,12a9.59,9.59,0,0,0-2.08-1.29l-.26-.11a2.08,2.08,0,0,1-.63-.32l-.08-.07a.51.51,0,0,0-.58-.13c-.81.3-.43,1.46-.25,2l0,.15a5.82,5.82,0,0,0,2,3.19,7.48,7.48,0,0,0,2.55.68l.19,0h0l.11.1a17.59,17.59,0,0,0,3.29,2.63,11.21,11.21,0,0,1-1.29,0c-.54-.06-1.1-.1-1.64-.12a5.43,5.43,0,0,0-.69,0,3,3,0,0,1-.51.05,3.25,3.25,0,0,0-.43,0,2.68,2.68,0,0,1-.76,0,.36.36,0,0,0-.36,0,4.61,4.61,0,0,1-.68,0,3.64,3.64,0,0,0-.5,0,12.59,12.59,0,0,0-2.61.85A31.7,31.7,0,0,1,120.52,21l0-.06a.25.25,0,0,0-.16,0,12,12,0,0,0-2.33-.23,15.1,15.1,0,0,1-1.66-.1A11.36,11.36,0,0,1,114,20a6.53,6.53,0,0,1-.66-.31c-.76-.53-1-1.91-1.2-2.67a11.21,11.21,0,0,0-.56-1.84c0-.09.05-.18.08-.28a5.44,5.44,0,0,0,.29-1.59,6.36,6.36,0,0,0-.49-2.3,6,6,0,0,0-3-2.42l-.75-.39a.27.27,0,0,0-.29,0,.27.27,0,0,0-.1.27c.08.41.15.82.21,1.24a13.76,13.76,0,0,0,.59,2.65c.46,1.27,1.42,3.3,2.88,3.3h.19a9.84,9.84,0,0,1,.42,1.46,9.08,9.08,0,0,0,.55,1.89l-.7-.43c-1.41-.83-2.67-1.6-3.85-2.38-.79-.51-1.54-1.11-2.27-1.69s-1.26-1-1.92-1.45l-.5-.35a27.21,27.21,0,0,0-3.78-2.34,20.52,20.52,0,0,0-2.74-1l-.11,0a.22.22,0,0,0-.09-.14,12.48,12.48,0,0,1-2.28-2.31.7.7,0,0,0,.15-.42A2.58,2.58,0,0,0,94,6a1.55,1.55,0,0,1,0-.31,5.7,5.7,0,0,0-.43-2.64A5.39,5.39,0,0,0,91.41,1,3.77,3.77,0,0,0,91,.76a3.28,3.28,0,0,1-.64-.38.61.61,0,0,0-.07-.1h0L90.14.16A.26.26,0,0,0,90,0a.28.28,0,0,0-.22,0c-.19.13-.36.43-.18,1.69l.06.36a6.55,6.55,0,0,0,1.06,3.22,5.27,5.27,0,0,0,2.72,1.77,16.31,16.31,0,0,0,1.68,1.85c-1-.32-2-.6-3-.87a11.84,11.84,0,0,0-2.93-.29l-.79,0a.79.79,0,0,1-.3,0,1.8,1.8,0,0,0-.29-.57,1.51,1.51,0,0,1-.12-.2c-.15-.29-.32-.58-.49-.86s-.23-.38-.34-.58a9.5,9.5,0,0,0-2.83-3l-.36-.27A8.82,8.82,0,0,0,81.27.88L81.07.8c-.41-.19-1.1-.49-1.45,0a2.26,2.26,0,0,0-.09,1.45v.11a6.27,6.27,0,0,0,.69,2.15,5.18,5.18,0,0,0,1.61,1.68l.39.3a6.41,6.41,0,0,0,1.89,1.13,2.5,2.5,0,0,0,.45.12,2.74,2.74,0,0,1,.51.15,2.21,2.21,0,0,0,1.06.21l.5,0,.67,0,.29,0a1.37,1.37,0,0,0,.74.17l.76,0a11.33,11.33,0,0,1,2.8.27c1.14.3,2.26.61,3.41,1l.93.3a18.55,18.55,0,0,1,2.67,1,24.43,24.43,0,0,1,3.39,2.08l-.42,0-.59,0-.47,0-.49,0a10.59,10.59,0,0,0-1.51.06.26.26,0,0,0-.18-.09h0l-.09-.06A3.44,3.44,0,0,0,96.69,12c-.68,0-1.36,0-2.16,0a17.56,17.56,0,0,0-2.6.13L91,12.2c-.59.07-1.21.14-1.81.27a8.5,8.5,0,0,0-2.15.87l-.89.44-.11.05c-.34.14-.84.35-.9.76a.7.7,0,0,0,.29.63,3.2,3.2,0,0,0,1,.51,4.77,4.77,0,0,1,.5.19c.27.13.52.28.79.44a7.3,7.3,0,0,0,1.07.58,8.16,8.16,0,0,0,3.09.68,6.23,6.23,0,0,0,1.5-.19,6.17,6.17,0,0,0,.88-.34,6.07,6.07,0,0,1,.59-.24c.13-.05.26-.08.4-.12a3.57,3.57,0,0,0,.89-.33,7.3,7.3,0,0,0,1.91-1.64,3.5,3.5,0,0,0,.24-.42,2,2,0,0,1,.25-.41l.07-.08a1.24,1.24,0,0,0,.22-.35,9.93,9.93,0,0,1,1.46-.05,3.55,3.55,0,0,1,.46,0l.51,0a4.93,4.93,0,0,0,.65,0,3.31,3.31,0,0,1,.94,0,.32.32,0,0,0,.22,0l0,0c.64.45,1.26.94,1.87,1.42s1.5,1.19,2.3,1.72c1.19.77,2.46,1.56,3.89,2.39.23.13.46.28.69.42s.78.47,1.18.68a.61.61,0,0,0,.14.1l.12,0h0c.16.07.32.16.48.22a12.24,12.24,0,0,0,2.44.58c.57.07,1.16.09,1.73.11s1,0,1.48.09l-.55.15a17.64,17.64,0,0,0-2.13.67c-.41.16-.82.35-1.23.54l-.8.36c-.49.21-3.63,1.45-3.68,1.47l-1.36.6c-1,.45-2,.89-3,1.31l-.83.37a5.77,5.77,0,0,1-2.06.69,18.15,18.15,0,0,1-4.92-.58,23.92,23.92,0,0,0-3.79-.59,18,18,0,0,0-4.16.32c-.51.09-1,.21-1.53.34s-1.14.28-1.71.37A6.12,6.12,0,0,1,86,27.21l-.49-.06-.91-.09c-.67-.07-1.35-.13-2-.22a13.86,13.86,0,0,0-1.43-.08,12.56,12.56,0,0,1-1.4-.08l-1.39-.19a1.54,1.54,0,0,0-.53,0l-.26-.25a.26.26,0,0,0-.22-.07,12.73,12.73,0,0,1-1.75-1.69.26.26,0,0,0,0-.28,6.06,6.06,0,0,1-1.15-4c0-.2,0-.43,0-.66s0-.45,0-.69a1,1,0,0,0,.45.27l.23,0a.52.52,0,0,0,.57-.38,1.59,1.59,0,0,0-.45-1.22c1.3.06,1.6-.09,1.65-.38a.71.71,0,0,0-.14-.61,2.91,2.91,0,0,0-2-.59c0-.13,0-.27.06-.41.11-.6.25-1.43-.55-1.77a.71.71,0,0,0-.82,0A1.27,1.27,0,0,0,73.25,15a1.7,1.7,0,0,0-.63-.67,1.13,1.13,0,0,0-.89,0,.82.82,0,0,0-.51.47c-.33.85.66,1.41,1.43,1.82a1.49,1.49,0,0,0-.88.32.63.63,0,0,0-.17.56.79.79,0,0,0,.87.64h0a2.28,2.28,0,0,0,1.33-.48,1.8,1.8,0,0,0,.08.21A7.49,7.49,0,0,1,74,19.55c0,.24,0,.47,0,.68a7.94,7.94,0,0,0,.5,2.91,41.13,41.13,0,0,0-5.92-5.88.24.24,0,0,0-.16-.18l-.17,0L68,16.9a.22.22,0,0,0,0-.16,8,8,0,0,0-1.41-1.9,13.18,13.18,0,0,0-2.84-2.44,6,6,0,0,0-3.67-.93,1.47,1.47,0,0,0-.85.32c-.55.51-.3,1.36.11,2a6.19,6.19,0,0,0,2.88,2.46,9.2,9.2,0,0,0,1.84.41l.27.05a28.44,28.44,0,0,1,3.63.83,41.45,41.45,0,0,1,6.41,6.36l.12.14a18.5,18.5,0,0,0,2.63,2.6c-2.37.64-4.64,1.06-6.55.06A9.33,9.33,0,0,1,69,25.55l-.59-.47C64.66,22.21,59.8,21.44,55.53,21l-1.2-.13c-3.58-.4-7.27-.82-10.56-2.22a5.18,5.18,0,0,1-.61-.63,23.35,23.35,0,0,1-1.86-2.62,1.69,1.69,0,0,0,0-1.23c0-.13-.06-.25-.08-.36a6.36,6.36,0,0,0-2.28-3.59c-.73-.61-1.25-.56-1.56-.42a.5.5,0,0,0-.24.21.61.61,0,0,0-.08.35,5.79,5.79,0,0,0,1.12,3.4,5.29,5.29,0,0,0,2.17,1.79,1.56,1.56,0,0,0,.51.11h0A23.55,23.55,0,0,0,42.53,18c-.69-.36-1.37-.78-2-1.19s-1.09-.67-1.65-1a21.85,21.85,0,0,0-4.2-1.77.21.21,0,0,0-.07-.12,12.89,12.89,0,0,1-2.23-2.14s0-.06,0-.09c-.42-1.52-.9-3-1.43-4.51a3.09,3.09,0,0,0-1.4-1.95,1.12,1.12,0,0,0-1,0c-.6.27-.67,1-.55,1.67a6.6,6.6,0,0,0,3.3,4.45,13.51,13.51,0,0,0,2.27,2.5l-.08.05-1.46-.09a.54.54,0,0,0-.25-.35,1.2,1.2,0,0,0-.47-.18L30,13a5.5,5.5,0,0,0-1.52-.17,5.45,5.45,0,0,0-1.5.4l-1,.38a.76.76,0,0,0-.46.42.42.42,0,0,0,0,.36.55.55,0,0,0,.26.2,7.06,7.06,0,0,0,1.94.66,4.46,4.46,0,0,0,.63,0,8.81,8.81,0,0,0,2.34-.42,3.27,3.27,0,0,0,1.17-.56l1.62.1a.38.38,0,0,0,.16.12,21.39,21.39,0,0,1,2.34.78.34.34,0,0,0,.19.27,51.18,51.18,0,0,1,5.54,3.11l1.33.82-.06,0-.32.14s-.06,0-.1,0a1.74,1.74,0,0,0-.33.18,2.11,2.11,0,0,1-.73.07c-.3,0-.6,0-.89-.07s-.78-.07-1.17-.09a19.2,19.2,0,0,1-2-.24,16.37,16.37,0,0,0-2.12-.26c-1,0-2.07,0-3.11,0a24.14,24.14,0,0,0-2.68.06l-.25,0a6.3,6.3,0,0,0-1.9.35,15.42,15.42,0,0,1-3.91,1c-.33,0-.71,0-1.08.05a4.09,4.09,0,0,1-.66-.92A4.81,4.81,0,0,0,20,18.07h0a3.22,3.22,0,0,0-.25-.39,2.46,2.46,0,0,1-.28-.46L19.38,17c-.14-.35-.28-.7-.4-1.05a7.19,7.19,0,0,1-.24-.94.31.31,0,0,0,.12,0l.05-.06a1.6,1.6,0,0,0,.38-.62,4.38,4.38,0,0,0,.06-1.7,4.84,4.84,0,0,0-2.3-3.33l-.09,0c-.5-.3-.76-.42-1-.32s-.26.4-.29.64a6.76,6.76,0,0,0,.47,3.09,3.8,3.8,0,0,0,1.95,2,9.49,9.49,0,0,0,.35,1.49c.12.36.26.72.41,1.08l.07.17s0,0,0,.05a9.35,9.35,0,0,1-1.22-.83c-.28-.24-.55-.51-.82-.77s-.47-.47-.71-.69c0,0,0,0-.07-.05a.3.3,0,0,0,0-.19,2.28,2.28,0,0,1-.23-.71,3.15,3.15,0,0,0-.1-.39,5.22,5.22,0,0,0-1.05-1.9,3.65,3.65,0,0,0-3.16-1.35c-.32.06-.35.24-.35.51a4.17,4.17,0,0,0,.38,1.76,4,4,0,0,0,1.83,1.76,4.53,4.53,0,0,0,1.32.48l.12,0a2.17,2.17,0,0,1,.72.22l.26.24c.24.21.47.44.7.67s.55.54.85.79a10.53,10.53,0,0,0,1.51,1,5.62,5.62,0,0,1,2.31,2,4.5,4.5,0,0,0,.47.7c-.63,0-1.28,0-2-.09l-1.2-.14a16.11,16.11,0,0,0-2.23-.18l0,0-.05,0-.05,0a.22.22,0,0,0-.11-.05l0,0a2,2,0,0,1-.39-.24,5.76,5.76,0,0,1-.7-.62c-.18-.16-.35-.33-.54-.48s-.5-.47-.74-.71c-.07-.08-.16-.15-.23-.23a1.65,1.65,0,0,0-.24-1.11l0-.09a14.42,14.42,0,0,0-1.33-2.19,6.82,6.82,0,0,0-2.1-1.82l-.24-.16a4.94,4.94,0,0,0-1.33-.61l-.11,0a1.93,1.93,0,0,1-.43-.17.26.26,0,0,0-.27,0,.27.27,0,0,0-.14.23,5.49,5.49,0,0,0,.07,1.39,6.44,6.44,0,0,0,.81,2,4,4,0,0,0,1.38,1.4l.2.12a4.07,4.07,0,0,0,.63.3,3.76,3.76,0,0,0,.48.13,2.12,2.12,0,0,1,.45.12c.23.09.47.16.72.23a5.68,5.68,0,0,1,.76.28c.2.18.39.37.59.57s.51.51.78.74.34.31.51.47a9.29,9.29,0,0,0,.74.65h0l-.44,0c-.54,0-1.09.07-1.62.07a.27.27,0,1,0,0,.53c.55,0,1.11,0,1.65-.06.36,0,.72-.05,1.09-.06a15.72,15.72,0,0,1,2.45.18c.4.06.81.11,1.22.15.74.06,1.44.1,2.09.1a15.79,15.79,0,0,0,1.74-.09,16,16,0,0,0,4-1.05,6,6,0,0,1,1.75-.32l.25,0a23.07,23.07,0,0,1,2.62-.06c1,0,2.07,0,3.11,0a13.12,13.12,0,0,1,1.39.15,12,12,0,0,0-1.55.86l-.17.1c-.82.52-1.58,1.08-2.42,1.71-.16.12-.31.26-.46.39a2.6,2.6,0,0,0-1.62.3,5.5,5.5,0,0,0-2,1.25c-.55.6-1.07,1.24-1.58,1.87a4.09,4.09,0,0,1-.28.33,3.67,3.67,0,0,0-.69.94A.29.29,0,0,0,26,28a.25.25,0,0,0,.26.09.5.5,0,0,1,.31,0l.12,0a2.18,2.18,0,0,0,.76.07h.41a2.34,2.34,0,0,0,.38,0,4.69,4.69,0,0,0,3.05-1.35,4.81,4.81,0,0,0,1.09-2.28,2.62,2.62,0,0,0,0-1.19,5.58,5.58,0,0,1,.46-.39c.83-.63,1.58-1.18,2.38-1.69l.17-.1a6.73,6.73,0,0,1,2.13-1,.32.32,0,0,0,.18-.12,16,16,0,0,0,1.71.19c.38,0,.76.05,1.13.09l.92.08h.08c-.1.13-.2.25-.28.37a3.62,3.62,0,0,1-.69.76c-.27.19-.55.35-.81.5a4.36,4.36,0,0,0-1.69,1.42c-.21.32-.88,1.72-.53,2.34a.84.84,0,0,0,.79.39,3,3,0,0,0,1.23-.33,3.94,3.94,0,0,0,2.09-3.71.26.26,0,0,0-.26-.26h0a.27.27,0,0,0-.27.26,3.45,3.45,0,0,1-1.8,3.24,2.62,2.62,0,0,1-.81.25c.21-.24.45-.49.7-.74A6.82,6.82,0,0,0,41,22.68a.27.27,0,0,0-.15-.34.26.26,0,0,0-.35.15,6.49,6.49,0,0,1-1.6,2.08,11.39,11.39,0,0,0-.84.9,3.34,3.34,0,0,1,.52-1.66A3.81,3.81,0,0,1,40,22.55a8.38,8.38,0,0,0,.86-.53,3.83,3.83,0,0,0,.8-.87,2.92,2.92,0,0,1,.89-.86,4.77,4.77,0,0,0,.63-.27l.25-.12.11,0,.55.35a13.28,13.28,0,0,0,1.69,1,7.75,7.75,0,0,0,1.72.51l.55.13A53.24,53.24,0,0,0,54.83,23a31.25,31.25,0,0,1,4.86,1.13l1,.3c1,.28,2,.65,3,1-1.06.21-2,.38-2.9.5-.76.09-1.56,0-2.41.13a23.54,23.54,0,0,0-3.57,1.05c-.58.21-1.15.41-1.73.59a25.41,25.41,0,0,0-3,1.23,25.79,25.79,0,0,1-2.83,1.15,5.79,5.79,0,0,0-.68.29,3.81,3.81,0,0,1-.72.28,1.75,1.75,0,0,1-.56,0l-.4,0a19.68,19.68,0,0,0-2.17.08l-.48,0a14.89,14.89,0,0,1-2.1-.09,17.61,17.61,0,0,0-2.07-.1c-1.4,0-2.87,0-4.3.14-.65.09-1.3.2-2,.31-.8.13-1.63.27-2.45.36a28.82,28.82,0,0,1-3.14.19l-1.14,0a18.32,18.32,0,0,0-2.34,0c-.71.07-1.42.11-2.13.15-1,.06-2.09.12-3.12.27h0a2.87,2.87,0,0,1-.31-.29L17,31.58a5.73,5.73,0,0,1-.6-.74,4.62,4.62,0,0,1-.28-.48,4.17,4.17,0,0,0-.26-.46l0,0h0c.42-.34.23-1.19.19-1.36a9,9,0,0,0-.67-1.76A9.28,9.28,0,0,0,14.12,25l-.19-.23a2.79,2.79,0,0,0-1-.69,4,4,0,0,1-.53-.3.26.26,0,0,0-.34,0c-.17.17-.16.48-.14.85a1.49,1.49,0,0,1,0,.17,6.43,6.43,0,0,0,1.19,3.77l.08.1a2.89,2.89,0,0,0,1,.95,4.71,4.71,0,0,0,.8.27l.27.08c0,.07.1.14.14.21a4.49,4.49,0,0,1,.24.42,5.63,5.63,0,0,0,1,1.34l.08.08h0a14.94,14.94,0,0,1-1.8.12h-.12a2.78,2.78,0,0,0-.68.1,2.35,2.35,0,0,1-.42.06,3.38,3.38,0,0,0-.44-.18l-.19-.07-.47-.17c-.21-.07-.42-.14-.63-.23A7.59,7.59,0,0,1,10.94,31a2.9,2.9,0,0,0-.06-.93c0-.12-.05-.24-.07-.35s0-.37-.05-.55A5.29,5.29,0,0,0,10.57,28c0-.08,0-.18-.07-.29a3.11,3.11,0,0,0-.23-.69s0,0,0,0a.7.7,0,0,0-.3-.74.5.5,0,0,0-.62.08.45.45,0,0,0-.09.57.56.56,0,0,0,.26.22.26.26,0,0,0,.23.18h.05a5,5,0,0,1,.16.55,2.33,2.33,0,0,0,.08.31,5.21,5.21,0,0,1,.16,1.06c0,.19,0,.39,0,.58s.05.25.08.39.05.29.07.42c-.18-.14-.36-.27-.54-.42l-.47-.37c-.41-.33-.86-.68-1.32-1,0,0,0-.06,0-.09-.08-.31-.15-.63-.22-1s-.17-.85-.29-1.27a6,6,0,0,0-.89-1.94c-.25-.3-.51-.59-.77-.87a.62.62,0,0,0-.32-.49.5.5,0,0,0-.63.15.43.43,0,0,0,0,.6.5.5,0,0,0,.27.17.25.25,0,0,0,.22.12h0a.54.54,0,0,0,.24,0c.22.23.43.47.63.71a5.4,5.4,0,0,1,.79,1.75c.12.4.2.82.28,1.22l.12.54c-.37-.26-.73-.53-1.12-.77L6,27.38,5.41,27s0-.07,0-.1-.21-.36-.32-.56a6.63,6.63,0,0,0-.5-.84A8.44,8.44,0,0,0,2.22,23.2a0,0,0,0,1,0,0,.78.78,0,0,0-.51-.73.55.55,0,0,0-.66.2.62.62,0,0,0,.15.85.79.79,0,0,0,.48.18.54.54,0,0,0,.22,0,7.93,7.93,0,0,1,2.24,2.23,5.76,5.76,0,0,1,.45.77.05.05,0,0,1,0,0l-.71-.25-.46-.15s-.06,0-.09,0l-.28-.1a4.29,4.29,0,0,1-1.42-.7.27.27,0,0,0-.14-.17A.57.57,0,0,0,1.2,25,.61.61,0,0,0,.69,25a.53.53,0,0,0-.25.34.52.52,0,0,0,.18.5.71.71,0,0,0,.45.14.68.68,0,0,0,.29,0s0,0,0,0a4.9,4.9,0,0,0,1.52.75l.57.21a.16.16,0,0,0,.1,0h0l.11,0,.42.15H4.08l-.38,0A8.72,8.72,0,0,1,1,27,.34.34,0,0,0,1,26.89a.51.51,0,0,0-.49-.36c-.1,0-.35.06-.45.46a.63.63,0,0,0,.24.78.57.57,0,0,0,.28.08.37.37,0,0,0,.21-.06A.44.44,0,0,0,1,27.56a12.78,12.78,0,0,0,1.74.14,7.4,7.4,0,0,0,1.07-.07l.33,0A1.88,1.88,0,0,0,5,27.4c.24.13.48.28.71.43l.42.27c.22.13.41.28.62.42l-.42.08-.47.1a9.46,9.46,0,0,1-1.66.19l-.31,0a5.3,5.3,0,0,1-1.26,0s0,0,0-.07a.39.39,0,0,0-.14-.1l0,0a.24.24,0,0,0-.3,0,.69.69,0,0,0-.42.11.45.45,0,0,0-.06.64.65.65,0,0,0,.55.31.58.58,0,0,0,.26-.06.49.49,0,0,0,.24-.23,4.23,4.23,0,0,0,.5.05c.25,0,.49,0,.73,0l.31,0a8.83,8.83,0,0,0,1.75-.21l.45-.09a4,4,0,0,0,.87-.23c.65.46,1.28.93,1.83,1.37l.46.37.08.06H8.72c-.24,0-.49,0-.73,0s-.59,0-.88,0a7,7,0,0,1-.9-.12l-.15,0-.32-.05a.61.61,0,0,0-.57-.3.56.56,0,0,0-.55.43.61.61,0,0,0,.24.63.6.6,0,0,0,.34.11.57.57,0,0,0,.28-.08A.66.66,0,0,0,5.66,31,2.46,2.46,0,0,0,6,31l.13,0c.37.06.67.1,1,.12l.91,0,.71,0h.18l.73,0h.7a8,8,0,0,0,1.48.93,5.54,5.54,0,0,0,.68.25l.45.16a1,1,0,0,0,.21.08l.06,0s0,0,0,0a.37.37,0,0,0,.35.41h.13a2.7,2.7,0,0,0,.67-.1,2.44,2.44,0,0,1,.51-.08h0a19.26,19.26,0,0,0,2.74-.22c1-.15,2-.21,3.05-.26.72,0,1.45-.08,2.16-.15a16.9,16.9,0,0,1,2.25,0l.8,0-.27.21-.18.15-.36.28c-.53.43-1,.83-1.59,1.21l-1.14.8-1.19.83c-.67.46-1.37.89-2.06,1.3l-1.11.68-.21.12-.05,0a4.79,4.79,0,0,0-1,0l-.16,0a4.76,4.76,0,0,1-1.19,0l-.38,0a3.59,3.59,0,0,0-1.84.46q-.67.31-1.35.6l-.67.3c-.67.29-1.38.61-2.1,1-.29.15-.58.32-.86.49s-.5.3-.76.44a10.49,10.49,0,0,0-2.11,1.49,1.63,1.63,0,0,0-.45.71s-.09.07-.11.12,0,0,0,.07a.27.27,0,0,0-.08.23.32.32,0,0,0,.14.2,1.81,1.81,0,0,0,.63.15l.12,0a9.77,9.77,0,0,1,1.32.32l.31.08a2.34,2.34,0,0,0,.69.09,6.61,6.61,0,0,0,1.09-.12l.49-.08c.69-.09,1.38-.21,2.07-.33l.82-.14a8.31,8.31,0,0,0,3-1.24,5.7,5.7,0,0,0,2.14-2.05A7.22,7.22,0,0,0,18,39a1.83,1.83,0,0,0,0-.62l.25-.15,1.1-.67c.7-.42,1.41-.85,2.09-1.32l1.19-.83,1.14-.8c.58-.39,1.08-.8,1.62-1.23l.36-.29.2-.16a2.25,2.25,0,0,1,.75-.49.26.26,0,0,0,.17-.12c.78,0,1.59-.08,2.58-.19.84-.08,1.68-.23,2.49-.36.64-.11,1.28-.22,1.93-.3,1.38-.18,2.83-.1,4.22-.14a16.41,16.41,0,0,1,2,.1,16,16,0,0,0,2.21.09l.48,0L44,31.41l-.25.25c-.26.26-.52.53-.77.83l-.44.57a5.49,5.49,0,0,1-1.15,1.25,7.87,7.87,0,0,1-2.68,1l-1.17.3,0,0a.28.28,0,0,0-.18,0c-.12,0-.41-.14-.51-.18l-.1,0a6.79,6.79,0,0,0-1.94-.32l-.16,0a10.71,10.71,0,0,0-1.4,0,2.37,2.37,0,0,0-1.6.88l-.18.18c-1,1-1.65,1.76-1.62,2.33a.58.58,0,0,0,.23.43,3.52,3.52,0,0,0,1.78.38h.13a8.44,8.44,0,0,0,2.82-.64c.78-.32,2.5-1.17,2.83-2.47h0c.4-.11.8-.22,1.2-.31a8.12,8.12,0,0,0,2.85-1.11,5.66,5.66,0,0,0,1.28-1.36c.13-.19.27-.37.42-.55s.48-.53.74-.79l.25-.26a1.2,1.2,0,0,0,.1-.11,1.55,1.55,0,0,1,.25-.26s.07,0,.11,0h0a2.07,2.07,0,0,1,.35,0l.33,0a.29.29,0,0,0,.07.12l.16.16a1.41,1.41,0,0,0,.74.49,3.32,3.32,0,0,0,1.75-.47l.5-.21,1.07-.34c.73-.23,1.49-.47,2.24-.77l.09,0,0,.05a10.53,10.53,0,0,0-1,1.46l-.15.24h0a.32.32,0,0,1-.13.05l-.22.08a4.72,4.72,0,0,0-1.11.9,6.25,6.25,0,0,0-1.27,1.72,7.49,7.49,0,0,0-.84,2.85.26.26,0,0,0,.23.26l.19,0a3.28,3.28,0,0,0,1.57-.61l.09-.06a4.53,4.53,0,0,0,1.72-1.91,3.09,3.09,0,0,0,.21-3l.18-.29a9.1,9.1,0,0,1,1-1.38,4.83,4.83,0,0,1,.79-.69l.28-.24,1-.32c.46-.11.89-.27,1.33-.42s.81-.29,1.22-.4a7.13,7.13,0,0,0,1.06-.39,5.79,5.79,0,0,1,1.24-.41,1.47,1.47,0,0,1,.28,0,1.71,1.71,0,0,0,.47,0c.33,0,4.59,0,6.1,0l0,.06a7.11,7.11,0,0,1-1.83,2.77c-.7.44-1.62.93-2.51,1.4s-2,1.07-2.78,1.57l-.35.21c-.52.3-1.06.61-1.17,1.16a1.17,1.17,0,0,0,.27.94.37.37,0,0,0,.3.15.42.42,0,0,0,.21-.06,21,21,0,0,1,3.52-1.61c.53-.2,1.06-.41,1.56-.62v0l-.11.22c-.08.18-.16.35-.25.53A8.84,8.84,0,0,0,62.55,36,14,14,0,0,0,62.07,38c0,.19,0,.38-.07.58l0,.24a3.9,3.9,0,0,0-1.75.81,6.73,6.73,0,0,0-1.67,1.82l-.3.42a14.72,14.72,0,0,0-1.36,2.41c-.2.43-.41.86-.64,1.27l-.08.16a1.64,1.64,0,0,0-.32.92.26.26,0,0,0,.21.26l.23,0a.94.94,0,0,0,.36-.1,2.85,2.85,0,0,1,.48-.13l.39-.11a7,7,0,0,0,2.19-1.13,9.52,9.52,0,0,0,1.07-1c.15-.16.3-.32.46-.47l.21-.21a3.29,3.29,0,0,0,.71-.84,5.45,5.45,0,0,0,.73-2.46,2.61,2.61,0,0,0-.41-1.37c0-.14,0-.29.05-.44s0-.38.07-.56a12.85,12.85,0,0,1,.46-1.87A9.25,9.25,0,0,1,63.59,35l.27-.54.1-.24a2.43,2.43,0,0,1,.36-.64c1.19-.66,3.28-1.94,4-2.38l.38-.11c.47.1,1,.17,1.41.24l.52.08c1.21.19,2.45.27,3.64.35.82.05,1.64.1,2.46.19a9.51,9.51,0,0,1,1,.17,7,7,0,0,0,2,.2,10.63,10.63,0,0,0,2-.52,11,11,0,0,1,1.58-.44,11.75,11.75,0,0,1,5.9.24c.36.11.71.23,1,.35a8.13,8.13,0,0,0,3.9.62,6.27,6.27,0,0,1,1-.06l.43,0a5.1,5.1,0,0,0,1.15-.22,5.57,5.57,0,0,1,.79-.17,4.28,4.28,0,0,1,2.34.92l.59.36a3.58,3.58,0,0,1-.87.52,4.47,4.47,0,0,0-1,.6c-.41.34-.79.69-1.18,1.05l-1.09,1-.38.32a14.73,14.73,0,0,1-1.17.95,11.66,11.66,0,0,1-2.16-.48l-.07,0A3,3,0,0,0,90.75,35a3,3,0,0,0-3.36.16.24.24,0,0,0-.12.2.28.28,0,0,0,.09.23,9.37,9.37,0,0,1,.76.7c.85.82,1.85,1.8,3,1.8a2.26,2.26,0,0,0,1.09-.32l.17.07c.48.14,1,.28,1.63.39a4.64,4.64,0,0,1-.72.32,25.53,25.53,0,0,1-5,.91h-.07l-.44.06h0c-1.12-.63-4.09-1.5-5.89-.69a2.14,2.14,0,0,0-1.29,1.57.27.27,0,0,0,.16.31l.09,0a10.73,10.73,0,0,0,3.58.82A4.15,4.15,0,0,0,87.74,40l.59-.08h.07A26.1,26.1,0,0,0,93.46,39a5.5,5.5,0,0,0,1.37-.69h.06a.26.26,0,0,0,.25-.23c.37-.27.72-.56,1.08-.87l.25-.22c0,.06,0,.11,0,.16a4.69,4.69,0,0,1-.06.93c-.07.35-.17.68-.27,1s-.11.44-.17.66a1.11,1.11,0,0,0-.48.35l-.09.08c-.23.2-.47.37-.71.55l-.29.22a6.44,6.44,0,0,0-2.11,2.45,6.24,6.24,0,0,0-.5,2.16l0,.15a3.82,3.82,0,0,0,0,.76c0,.12,0,.23,0,.35a.66.66,0,0,1,0,.14,1.21,1.21,0,0,0,0,.33.29.29,0,0,0,.11.18.27.27,0,0,0,.15,0h0a1.51,1.51,0,0,0,.34-.11l.13-.06L93,47.2a6.14,6.14,0,0,0,.95-.36,7,7,0,0,0,2.11-1.92l.29-.36a3.42,3.42,0,0,0,.84-1.45,4.4,4.4,0,0,0-.61-3c-.05-.07-.12-.07-.19-.09.07-.27.13-.54.21-.8s.21-.7.28-1.06a5.25,5.25,0,0,0,.07-1c0-.21,0-.43,0-.64l.68-.61c.38-.35.76-.7,1.16-1a3.64,3.64,0,0,1,.93-.53,4,4,0,0,0,1.08-.66.25.25,0,0,0,0-.13,2.16,2.16,0,0,0,.91,0,4.34,4.34,0,0,1,.59,0h0a.39.39,0,0,0,.38-.33c.11-.75.76-.89,1.83-1l.67-.11a13.63,13.63,0,0,0,3.2-1.2,12.44,12.44,0,0,1,3.18-1.17c.31-.06.62-.09.94-.13a6.79,6.79,0,0,0,2.12-.46c.89-.41,1.75-.86,2.58-1.3a23.6,23.6,0,0,1,4.47-2c.87-.26,1.74-.55,2.61-.85,1.31-.45,2.67-.91,4-1.23a8.66,8.66,0,0,1,1.12-.17l.61-.07a12.31,12.31,0,0,1,1.32,0h.74a9.19,9.19,0,0,1,4.25.44c1.61.56,3.19,1.19,4.69,1.87A32,32,0,0,0,144.59,27l1.43.49a3.94,3.94,0,0,1,1.1.65l.12.09a.49.49,0,0,0,.26.18.38.38,0,0,0,.52-.11A.36.36,0,0,0,147.92,27.77Zm-21-16.53a8.5,8.5,0,0,1,1.95,1.22,3.62,3.62,0,0,1,1.24,2.94l-.21-.2a15.62,15.62,0,0,1-2.11-2.46,13.16,13.16,0,0,0-.93-1.14l-.23-.28-.2-.21L126.3,11l.35.15Zm-1,.9-.05-.16a4.79,4.79,0,0,1-.21-1l.41.45.18.2.24.27c.32.37.62.72.9,1.11a16.05,16.05,0,0,0,2.17,2.53,7.75,7.75,0,0,1-1.83-.52A5.26,5.26,0,0,1,125.87,12.14ZM111,11.21a5.76,5.76,0,0,1,.44,2.09,3.51,3.51,0,0,1-.17,1l-.18-.46-.42-1a12.77,12.77,0,0,0-1.25-2.27l-.09-.15a5.34,5.34,0,0,0-.71-.85,7.46,7.46,0,0,1-.53-.61l.16.08A5.49,5.49,0,0,1,111,11.21Zm-2.35,1a12.62,12.62,0,0,1-.53-2.37l.11.13a4.22,4.22,0,0,1,.65.77l.1.14A12.88,12.88,0,0,1,110.14,13c.14.35.29.69.43,1s.28.7.42,1C109.77,15.08,108.87,12.87,108.62,12.17ZM91.13,1.43a5,5,0,0,1,2,1.88,5.33,5.33,0,0,1,.38,2.42,2.56,2.56,0,0,0,0,.39,1.15,1.15,0,0,1,0,.26l-.15-.19a9.56,9.56,0,0,1-1.15-1.67,7.93,7.93,0,0,1-.32-.78c-.08-.23-.16-.46-.26-.68s-.32-.64-.48-1l-.37-.71-.06-.15Zm0,3.56a6.18,6.18,0,0,1-1-3l-.05-.37A5.06,5.06,0,0,1,90,.92l.15.34a3,3,0,0,0,.15.36c.11.24.24.48.37.72s.32.62.46.94.18.43.26.64a8.43,8.43,0,0,0,.33.83,8.66,8.66,0,0,0,1,1.54A4.75,4.75,0,0,1,91.11,5Zm-10-3.6a8.25,8.25,0,0,1,2.17,1.29l.37.27a9.1,9.1,0,0,1,2.67,2.8c.11.2.23.4.35.59s.33.55.47.83l.07.11L87,7.18a9.39,9.39,0,0,1-1.71-.91L84.91,6a11.54,11.54,0,0,1-3.57-3.38A5.54,5.54,0,0,1,81,2a5.83,5.83,0,0,0-.58-.91l.48.18Zm5,6.17a1.55,1.55,0,0,1-.83-.16,3,3,0,0,0-.61-.19,1.86,1.86,0,0,1-.39-.1,5.86,5.86,0,0,1-1.73-1l-.4-.31A4.77,4.77,0,0,1,80.7,4.25a5.67,5.67,0,0,1-.63-2l0-.12c0-.14,0-.44,0-.7h0a6.65,6.65,0,0,1,.49.79,5.06,5.06,0,0,0,.4.68,12,12,0,0,0,3.73,3.53l.4.25a11.21,11.21,0,0,0,1.57.85h-.48Zm1.16,6.25a7.87,7.87,0,0,1,2-.82,17.17,17.17,0,0,1,1.75-.26c.32,0,.64-.07,1-.12a15.61,15.61,0,0,1,2.17-.12h.42c.73,0,1.4,0,2.07,0a2.5,2.5,0,0,1,1.33.55c-.66.11-1.3.25-1.88.4-.27.07-.53.16-.79.24a8.89,8.89,0,0,1-1.17.32,15.75,15.75,0,0,1-2.76.17c-.46,0-.91,0-1.35,0s-.63,0-.94.09a6.74,6.74,0,0,1-1.48.07,5.41,5.41,0,0,1-.58-.07c-.23,0-.47,0-.7-.06h0C86.67,14.12,87,14,87.28,13.81Zm10.56.28a2.53,2.53,0,0,1-.2.36,6.94,6.94,0,0,1-1.76,1.49,2.91,2.91,0,0,1-.75.28l-.44.13a5.59,5.59,0,0,0-.63.26,5.1,5.1,0,0,1-.79.3A6.57,6.57,0,0,1,89,16.45a7.94,7.94,0,0,1-1-.54c-.27-.16-.54-.33-.83-.47a6,6,0,0,0-.56-.22,2.74,2.74,0,0,1-.86-.4c-.11-.1-.12-.15-.12-.15a.35.35,0,0,1,.11-.11.27.27,0,0,0,.25.22,7.93,7.93,0,0,1,1,.08l.6.07A2.88,2.88,0,0,0,88,15a11.08,11.08,0,0,0,1.18-.09l.9-.09,1.33,0a15.88,15.88,0,0,0,2.85-.17,10.31,10.31,0,0,0,1.24-.34,7.49,7.49,0,0,1,.77-.23c.58-.16,1.22-.29,1.89-.41A2.59,2.59,0,0,0,97.84,14.09ZM75,18.62c-.25,0-.48-.57-.64-1,0-.07-.05-.14-.07-.2l.11.08a2,2,0,0,1,.82,1.12A.49.49,0,0,1,75,18.62Zm-1.19-4.37s.11,0,.24.05c.38.16.37.5.25,1.18a3,3,0,0,0-.08.78.28.28,0,0,0,.25.25h.14c.36,0,1.48.07,1.74.4a.19.19,0,0,1,0,.1,8.31,8.31,0,0,1-1.89,0,.24.24,0,0,0-.27.2.13.13,0,0,0,0,.06,2.5,2.5,0,0,0-.09-.25,0,0,0,0,1,0,0l-.06-.12h0a.3.3,0,0,0,.08-.3C73.55,14.59,73.81,14.28,73.85,14.25Zm-2.13.64a.33.33,0,0,1,.19-.16.91.91,0,0,1,.23,0,.46.46,0,0,1,.22,0,2.44,2.44,0,0,1,.75,1.09c.07.15.15.31.23.45L73,16.09C72.19,15.68,71.56,15.3,71.72,14.89Zm.76,2.62h0c-.32,0-.34-.14-.35-.19a.09.09,0,0,1,0-.1A1.53,1.53,0,0,1,73,17a4.07,4.07,0,0,1,.52,0A1.69,1.69,0,0,1,72.48,17.51Zm-8.07-1.35-.27,0a9.22,9.22,0,0,1-1.73-.39,5.8,5.8,0,0,1-2.63-2.26c-.22-.33-.51-1-.19-1.28a1,1,0,0,1,.55-.19,3.39,3.39,0,0,1,.45,0,5.68,5.68,0,0,1,2.89.88,13.05,13.05,0,0,1,2.72,2.35,10.22,10.22,0,0,1,.88,1.07c-.38-.24-.77-.47-1.17-.67s-1-.48-1.49-.71A12.44,12.44,0,0,1,61,12.84a.27.27,0,1,0-.37.38,12.51,12.51,0,0,0,3.61,2.16c.5.23,1,.45,1.47.7s.66.37,1,.56C65.91,16.46,65.16,16.28,64.41,16.16ZM28.55,6.77c-.08-.41-.06-.93.25-1.08a.58.58,0,0,1,.19,0,.72.72,0,0,1,.33.08,2.66,2.66,0,0,1,1.12,1.64c.38,1.08.74,2.17,1.06,3.27a12.94,12.94,0,0,1-1.73-4,.26.26,0,0,0-.32-.19.27.27,0,0,0-.2.32,13.35,13.35,0,0,0,1.35,3.38A6.14,6.14,0,0,1,28.55,6.77ZM16.68,12.45a6.24,6.24,0,0,1-.44-2.87.83.83,0,0,1,0-.13,3,3,0,0,1,.43.24l.1.05a4.3,4.3,0,0,1,2,3,3.79,3.79,0,0,1-.05,1.47.66.66,0,0,1-.14.26l-.06-.32c-.07-.4-.14-.8-.22-1.19l0-.18a6.31,6.31,0,0,0-.84-2.27.27.27,0,0,0-.43.32,5.5,5.5,0,0,1,.75,2.07l0,.18c.07.31.12.63.17,1A3.31,3.31,0,0,1,16.68,12.45Zm-5-1.35-.08-.26.15.2A.19.19,0,0,1,11.66,11.1Zm2,3a3.54,3.54,0,0,1-1.6-1.52,3.91,3.91,0,0,1-.33-1.54,3.21,3.21,0,0,1,2.57,1.19A4.73,4.73,0,0,1,15.29,14l.09.35v0c-.23-.23-.46-.47-.67-.71l-.44-.5A12.64,12.64,0,0,1,13,11.53a.27.27,0,1,0-.45.29,13.51,13.51,0,0,0,1.36,1.7l.44.49.5.54A4.24,4.24,0,0,1,13.7,14.13Zm-4.28-1a6.73,6.73,0,0,1,2,1.68,13.88,13.88,0,0,1,1.28,2.12l.05.09a3.08,3.08,0,0,1,.16.38,4.19,4.19,0,0,0-.63-.48,10.86,10.86,0,0,1-2.81-2.61,8.19,8.19,0,0,1-1.17-1.78,4.12,4.12,0,0,1,.92.44Zm1.44,3.65a3.59,3.59,0,0,1-.41-.11,3,3,0,0,1-.54-.27l-.21-.12a3.4,3.4,0,0,1-1.17-1.21,5.87,5.87,0,0,1-.75-1.86c0-.16,0-.36,0-.55a8.75,8.75,0,0,0,1.29,2,13.2,13.2,0,0,0,2.2,2.22C11.1,16.84,11,16.8,10.86,16.78Zm18,8.15a5,5,0,0,1,1.85-1.15,5.33,5.33,0,0,1,.82-.27l-.35.34A12.76,12.76,0,0,1,29.9,25c-.37.29-.77.55-1.16.81s-.85.56-1.26.88l-.26.18,0,0,.15-.17C27.81,26.14,28.32,25.51,28.86,24.93Zm3-.43a4.46,4.46,0,0,1-.95,2,4,4,0,0,1-3,1.18,1.67,1.67,0,0,0-.32,0h-.51l0,0,.06-.06c.12-.1.24-.18.36-.27l.29-.2c.39-.3.81-.58,1.22-.86s.81-.53,1.19-.82a12.93,12.93,0,0,0,1.33-1.21l.36-.35A3,3,0,0,1,31.83,24.5Zm6.75-11.1a5.23,5.23,0,0,1-1-3.09s0-.07,0-.08c.3-.14.7.11,1,.35a5.9,5.9,0,0,1,2.1,3.28,3,3,0,0,0,.09.38l.08.37c-.17-.27-.34-.53-.5-.8L38.9,11.43a.25.25,0,0,0-.36-.09.26.26,0,0,0-.09.37L39.9,14.1c.17.29.36.57.53.86A4.84,4.84,0,0,1,38.58,13.4Zm-7,.36h0l.07-.1Zm-1.07.6a6.54,6.54,0,0,1-2.74.35,6.85,6.85,0,0,1-1.74-.58l.07,0,1.05-.38a5,5,0,0,1,1.35-.37,5,5,0,0,1,1.38.16l1,.21-.61,0a7.23,7.23,0,0,0-1.47,0,.28.28,0,0,0-.23.3.29.29,0,0,0,.3.23,7.94,7.94,0,0,1,1.38,0l.59,0Zm-16.83,11A9.27,9.27,0,0,1,14.93,27a8.78,8.78,0,0,1,.62,1.65,1.54,1.54,0,0,1,0,.72l0,0c-.1-.16-.21-.31-.31-.48a10.89,10.89,0,0,1-.6-1.34A12.69,12.69,0,0,0,14,26.21c-.15-.27-.32-.54-.49-.8l-.3-.48-.09-.17a2,2,0,0,1,.39.32Zm-.06,3-.08-.09a5.9,5.9,0,0,1-1.08-3.45s0-.1,0-.17c.06.11.12.22.16.31s.09.18.14.26l.3.49c.17.25.33.5.48.77a10.24,10.24,0,0,1,.58,1.3,11.79,11.79,0,0,0,.64,1.41.86.86,0,0,1,.07.1,2,2,0,0,1-.37-.13A2.35,2.35,0,0,1,13.65,28.35ZM5.38,23.68h0ZM1.66,23.1H1.6l-.05,0a.11.11,0,0,1,0-.15h0a.21.21,0,0,1,.1.05C1.67,23,1.69,23.1,1.66,23.1Zm3.49,7.64v-.07h0C5.19,30.76,5.17,30.77,5.15,30.74ZM7.61,41.57q.41-.21.78-.45c.28-.17.55-.33.83-.48.71-.35,1.41-.67,2.07-1l.67-.29,1.37-.61a3.31,3.31,0,0,1,1.57-.41l.37,0a5.57,5.57,0,0,0,1.3,0l.16,0h0c-.67.35-1.42.7-2.3,1.07l-.74.32c-.64.28-1.3.56-2,.78a10.47,10.47,0,0,0-2.55,1.27,3.65,3.65,0,0,1-1.24.44l-.6.16-.63.19c-.31.09-.63.18-.94.29l-.2.08,0,0A10.07,10.07,0,0,1,7.61,41.57Zm9.84-2.71A6.7,6.7,0,0,1,17,40.38,5.06,5.06,0,0,1,15,42.22a8.16,8.16,0,0,1-2.83,1.17l-.82.14c-.68.12-1.37.23-2.06.33l-.5.08a3.55,3.55,0,0,1-1.55,0L7,43.9a12.08,12.08,0,0,0-1.35-.33h0l.28-.12.92-.28L7.5,43c.18-.06.37-.1.57-.15a4.35,4.35,0,0,0,1.41-.52,9.92,9.92,0,0,1,2.42-1.2c.69-.23,1.36-.52,2-.8l.73-.32a28.2,28.2,0,0,0,2.83-1.35Zm17.09-.71a7.86,7.86,0,0,1-2.64.6,3,3,0,0,1-1.59-.32c0-.29.48-.93,1.47-1.91l.18-.18a1.84,1.84,0,0,1,1.26-.73c.31,0,.64,0,1,0h.35l.16,0a6,6,0,0,1,1.78.29h0a14,14,0,0,1-1.66.34,5.25,5.25,0,0,0-1.49.41l-.89.4a1.05,1.05,0,0,0-.26.13.27.27,0,0,0-.2.24.3.3,0,0,0,.18.27l.1-.22.06.22.16-.07.17-.09.07,0,.83-.38a4.55,4.55,0,0,1,1.35-.36,15.21,15.21,0,0,0,2-.43A4.75,4.75,0,0,1,34.54,38.15Zm15.31-4.62a6.4,6.4,0,0,1,.52-.48c-.22.34-.43.68-.62,1s-.5.87-.78,1.28a4.51,4.51,0,0,1-.59.66.93.93,0,0,0-.14.14c.13-.37.29-.73.44-1.07A5.85,5.85,0,0,1,49.85,33.53Zm.84,1.65a4.1,4.1,0,0,1-1.52,1.7l-.09,0a3.32,3.32,0,0,1-1.17.53c0-.15.05-.29.08-.43h.08a.33.33,0,0,0,.17-.1,4.26,4.26,0,0,1,.51-.54,4.3,4.3,0,0,0,.66-.74c.3-.43.55-.88.8-1.32s.51-.9.8-1.33A2.83,2.83,0,0,1,50.69,35.18Zm8,7,.31-.43A6.43,6.43,0,0,1,60.54,40a4.89,4.89,0,0,1,1.35-.7,3.38,3.38,0,0,1-.11.48,7,7,0,0,1-1.06,1.72,18.44,18.44,0,0,1-1.88,2.07c-.28.27-.59.52-.89.76a10.78,10.78,0,0,0-.9.77c.11-.22.22-.42.32-.64A14.46,14.46,0,0,1,58.68,42.15Zm3.68-1.75a4.93,4.93,0,0,1-.66,2.22,3,3,0,0,1-.62.72l-.21.21c-.17.16-.32.32-.47.48a9.36,9.36,0,0,1-1,1,6.41,6.41,0,0,1-2,1l-.36.1-.27.08L57,46a1.06,1.06,0,0,0,.15-.15,9,9,0,0,1,1.17-1c.31-.25.63-.51.93-.79a18.64,18.64,0,0,0,1.93-2.14A7.54,7.54,0,0,0,62.28,40v0A1.63,1.63,0,0,1,62.36,40.4Zm28.13-5A2.75,2.75,0,0,1,91.88,37l-.35-.2a6.13,6.13,0,0,0-.72-.4c-.3-.14-.62-.27-1-.39a10.92,10.92,0,0,1-1.58-.74A2.33,2.33,0,0,1,90.49,35.42Zm-1.75.68.93.38c.31.12.63.25.92.38s.44.24.67.37l.32.19C90.56,37.73,89.64,37,88.74,36.1Zm-6.59,3.16c1.26-.56,3.37-.15,4.68.35-.86.12-1.76.24-2.63.3-.28,0-.58.07-.89.12a4.77,4.77,0,0,1-1.61.11v0h-.13a.27.27,0,0,0-.31.14h0A1.63,1.63,0,0,1,82.15,39.26Zm.39,1.42.86-.12c.29-.05.57-.1.83-.12.88-.06,1.77-.18,2.63-.3A4.63,4.63,0,0,1,82.54,40.68Zm9.77,5a6,6,0,0,1,.45-2,6,6,0,0,1,1.95-2.26l.29-.21c.25-.19.5-.37.73-.57h0A13.92,13.92,0,0,1,94,44.55l-.28.31c-.28.32-1,1.15-1.43,1.53a4,4,0,0,1,0-.6ZM96.7,43A2.91,2.91,0,0,1,96,44.23c-.11.12-.22.25-.31.37a6.23,6.23,0,0,1-1.93,1.77,4.91,4.91,0,0,1-.86.32l-.19.07c.29-.28.73-.75,1.44-1.55l.26-.29a13.79,13.79,0,0,0,1.89-4.27A3.82,3.82,0,0,1,96.7,43Z"/>
    </g>
  </g>
</svg>
